<?xml version="1.0" encoding="iso-8859-1"?>
<!-- Generator: Adobe Illustrator 18.0.0, SVG Export Plug-In . SVG Version: 6.00 Build 0)  -->
<!DOCTYPE svg PUBLIC "-//W3C//DTD SVG 1.1//EN" "http://www.w3.org/Graphics/SVG/1.1/DTD/svg11.dtd">
<svg version="1.1" id="Layer_1" xmlns="http://www.w3.org/2000/svg" xmlns:xlink="http://www.w3.org/1999/xlink" x="0px" y="0px"
	 viewBox="0 0 184.24 184.25" style="enable-background:new 0 0 184.24 184.25;" xml:space="preserve">
<symbol  id="New_Symbol" viewBox="-92.35 -92.12 184.24 184.25">
	<polygon style="fill:#323639;" points="91.87,-92.12 -92.35,-92.12 -92.35,92.13 91.87,92.13 	"/>
	<path style="fill:#DA1C5C;" d="M19.92-46.27H5.26c-1.76,0-3.19,1.43-3.19,3.19s1.43,3.19,3.19,3.19h14.65
		c1.76,0,3.19-1.43,3.19-3.19S21.68-46.27,19.92-46.27z M18.36,22.01c0,1.76-1.43,3.19-3.19,3.19H6.9c-1.76,0-3.19-1.43-3.19-3.19
		c0-1.76,1.43-3.19,3.19-3.19h8.28C16.94,18.82,18.36,20.25,18.36,22.01z M61.69-21.38c0,1.76-1.43,3.19-3.19,3.19H16.58
		c-1.76,0-3.19-1.43-3.19-3.19c0-1.76,1.43-3.19,3.19-3.19H58.5C60.26-24.57,61.69-23.14,61.69-21.38z"/>
	<path style="fill:#27AAE1;" d="M69.85,18.82H27.93c-1.76,0-3.19,1.43-3.19,3.19c0,1.76,1.43,3.19,3.19,3.19h41.92
		c1.76,0,3.19-1.43,3.19-3.19C73.04,20.25,71.61,18.82,69.85,18.82z M7.02-21.38c0,1.76-1.43,3.19-3.19,3.19h-8.28
		c-1.76,0-3.19-1.43-3.19-3.19c0-1.76,1.43-3.19,3.19-3.19h8.28C5.59-24.57,7.02-23.14,7.02-21.38z M45.77,0.31
		c0,1.76-1.43,3.19-3.19,3.19H0.92c-1.76,0-3.19-1.43-3.19-3.19s1.43-3.19,3.19-3.19h41.66C44.34-2.87,45.77-1.45,45.77,0.31z
		 M33.7,43.7c0,1.76-1.43,3.19-3.19,3.19h-55.1c-1.76,0-3.19-1.43-3.19-3.19s1.43-3.19,3.19-3.19h55.1
		C32.28,40.52,33.7,41.94,33.7,43.7z"/>
	<path style="fill:#8CC74E;" d="M-33.26-67.96H-66.9c-1.76,0-3.19,1.43-3.19,3.19c0,1.76,1.43,3.19,3.19,3.19h33.64
		c1.76,0,3.19-1.43,3.19-3.19C-30.07-66.54-31.5-67.96-33.26-67.96z M-4.3-43.08c0,1.76-1.43,3.19-3.19,3.19h-46.66
		c-1.76,0-3.19-1.43-3.19-3.19s1.43-3.19,3.19-3.19h46.66C-5.73-46.27-4.3-44.84-4.3-43.08z M-2.67,22.01
		c0,1.76-1.43,3.19-3.19,3.19H-41.4c-1.76,0-3.19-1.43-3.19-3.19c0-1.76,1.43-3.19,3.19-3.19h35.55
		C-4.09,18.82-2.67,20.25-2.67,22.01z M-14.01-21.38c0,1.76-1.43,3.19-3.19,3.19h-24.2c-1.76,0-3.19-1.43-3.19-3.19
		c0-1.76,1.43-3.19,3.19-3.19h24.2C-15.44-24.57-14.01-23.14-14.01-21.38z M-8.64,0.31c0,1.76-1.43,3.19-3.19,3.19h-16.82
		c-1.76,0-3.19-1.43-3.19-3.19s1.43-3.19,3.19-3.19h16.82C-10.07-2.87-8.64-1.45-8.64,0.31z M-34.14,43.7
		c0,1.76-1.43,3.19-3.19,3.19h-16.82c-1.76,0-3.19-1.43-3.19-3.19s1.43-3.19,3.19-3.19h16.82C-35.57,40.52-34.14,41.94-34.14,43.7z
		 M-30.07,65.4c0,1.76-1.43,3.19-3.19,3.19H-66.9c-1.76,0-3.19-1.43-3.19-3.19c0-1.76,1.43-3.19,3.19-3.19h33.64
		C-31.5,62.21-30.07,63.64-30.07,65.4z"/>
	<g>
		<polygon style="opacity:0.18;fill:#F15A22;" points="91.89,36.06 -92.33,36.06 -92.33,51.23 91.89,51.23 		"/>
		<polygon style="opacity:0.7;fill:#F15A22;" points="91.89,42.74 -92.33,42.74 -92.33,44.54 91.89,44.54 		"/>
	</g>
</symbol>
<use xlink:href="#New_Symbol"  width="184.24" height="184.25" id="XMLID_1_" x="-92.35" y="-92.12" transform="matrix(1 0 0 -1 92.3476 92.1276)" style="overflow:visible;"/>
</svg>
